<?xml version="1.0" encoding="utf-8"?>
<!-- Generator: Adobe Illustrator 20.1.0, SVG Export Plug-In . SVG Version: 6.00 Build 0)  -->
<svg version="1.1" id="Layer_1" xmlns="http://www.w3.org/2000/svg" xmlns:xlink="http://www.w3.org/1999/xlink" x="0px" y="0px"
	 viewBox="0 0 403.1 320.8" style="enable-background:new 0 0 403.1 320.8;" xml:space="preserve">
<style type="text/css">
	.st0{fill:#16446C;}
</style>
<g id="icomoon-ignore">
</g>
<path class="st0" d="M345.5,184.8v120c0,4.3-1.6,8.1-4.8,11.2s-6.9,4.8-11.2,4.8h-96v-96h-64v96h-96c-4.3,0-8.1-1.6-11.2-4.8
	s-4.8-6.9-4.8-11.2v-120c0-0.2,0-0.4,0.1-0.8s0.1-0.6,0.1-0.8L201.5,64.8l143.8,118.5C345.4,183.6,345.5,184.1,345.5,184.8z
	 M401.3,167.5L385.8,186c-1.3,1.5-3.1,2.4-5.2,2.8h-0.8c-2.2,0-3.9-0.6-5.2-1.8l-173-144.2L28.5,187c-2,1.3-4,1.9-6,1.8
	c-2.2-0.3-3.9-1.2-5.2-2.8L1.8,167.5c-1.3-1.7-1.9-3.6-1.8-5.9s1.1-4,2.8-5.4L182.5,6.5c5.3-4.3,11.7-6.5,19-6.5s13.7,2.2,19,6.5
	l61,51V8.8c0-2.3,0.8-4.2,2.2-5.8s3.4-2.2,5.8-2.2h48c2.3,0,4.2,0.8,5.8,2.2s2.2,3.4,2.2,5.8v102l54.8,45.5c1.7,1.3,2.6,3.1,2.8,5.4
	S402.6,165.8,401.3,167.5z"/>
</svg>
