<?xml version="1.0" encoding="utf-8"?>
<!-- Generator: Adobe Illustrator 20.1.0, SVG Export Plug-In . SVG Version: 6.00 Build 0)  -->
<svg version="1.1" id="Layer_1" xmlns="http://www.w3.org/2000/svg" xmlns:xlink="http://www.w3.org/1999/xlink" x="0px" y="0px"
	 viewBox="0 0 448 448" style="enable-background:new 0 0 448 448;" xml:space="preserve">
<style type="text/css">
	.st0{fill:#16446C;}
</style>
<g id="icomoon-ignore">
</g>
<path class="st0" d="M224,0c30.3,0,59.3,5.9,87,17.8s51.5,27.8,71.5,47.8s35.9,43.8,47.8,71.5s17.8,56.7,17.8,87s-5.9,59.3-17.8,87
	s-27.8,51.5-47.8,71.5s-43.8,35.9-71.5,47.8S254.3,448,224,448s-59.3-5.9-87-17.8s-51.5-27.8-71.5-47.8S29.6,338.7,17.8,311
	S0,254.3,0,224s5.9-59.3,17.8-87s27.8-51.5,47.8-71.5s43.8-35.9,71.5-47.8S193.7,0,224,0z M224,32c-31.7,0-61.8,7.5-90.2,22.5
	l48.5,48.5c13.7-4.7,27.6-7,41.8-7s28.1,2.3,41.8,7l48.5-48.5C285.8,39.5,255.7,32,224,32z M54.5,314.2l48.5-48.5
	c-4.7-13.7-7-27.6-7-41.8s2.3-28.1,7-41.8l-48.5-48.5C39.5,162.2,32,192.3,32,224S39.5,285.8,54.5,314.2z M224,416
	c31.7,0,61.8-7.5,90.2-22.5L265.8,345c-13.7,4.7-27.6,7-41.8,7s-28.1-2.3-41.8-7l-48.5,48.5C162.2,408.5,192.3,416,224,416z
	 M224,320c26.5,0,49.1-9.4,67.9-28.1S320,250.5,320,224s-9.4-49.1-28.1-67.9S250.5,128,224,128s-49.1,9.4-67.9,28.1
	S128,197.5,128,224s9.4,49.1,28.1,67.9S197.5,320,224,320z M345,265.8l48.5,48.5c15-28.5,22.5-58.6,22.5-90.2s-7.5-61.8-22.5-90.2
	L345,182.2c4.7,13.7,7,27.6,7,41.8S349.7,252.1,345,265.8z"/>
</svg>
