<?xml version="1.0" encoding="utf-8"?>
<!-- Generator: Adobe Illustrator 20.1.0, SVG Export Plug-In . SVG Version: 6.00 Build 0)  -->
<svg version="1.1" id="Layer_1" xmlns="http://www.w3.org/2000/svg" xmlns:xlink="http://www.w3.org/1999/xlink" x="0px" y="0px"
	 viewBox="0 0 736 864" style="enable-background:new 0 0 736 864;" xml:space="preserve">
<style type="text/css">
	.st0{fill:#16446C;}
</style>
<g id="icomoon-ignore">
</g>
<path class="st0" d="M704,544H32v64H0V448h32v64h672v-64h32v160h-32V544z M64,480V64.2C64,28.7,92.8,0,128.3,0H448v192.1
	c0,35.6,28.7,63.9,64.2,63.9H672v224H64z M480,0v191.9c0,17.7,14.4,32.1,31.7,32.1H672L480,0z M640,576v288h32V576H640z M576,576
	v256h32V576H576z M512,576v224h32V576H512z M448,576v288h32V576H448z M384,576v256h32V576H384z M320,576v288h32V576H320z M256,576
	v224h32V576H256z M192,576v288h32V576H192z M128,576v256h32V576H128z M64,576v288h32V576H64z"/>
</svg>
