<?xml version="1.0" encoding="utf-8"?>
<!-- Generator: Adobe Illustrator 20.1.0, SVG Export Plug-In . SVG Version: 6.00 Build 0)  -->
<svg version="1.1" id="Layer_1" xmlns="http://www.w3.org/2000/svg" xmlns:xlink="http://www.w3.org/1999/xlink" x="0px" y="0px"
	 viewBox="0 0 576 576" style="enable-background:new 0 0 576 576;" xml:space="preserve">
<style type="text/css">
	.st0{fill:#16446C;}
</style>
<g id="icomoon-ignore">
</g>
<path class="st0" d="M416,512c0,35.3,28.6,64,64,64c35.3,0,64-28.7,64-64c0-35.4-28.7-64-64-64C444.6,448,416,476.6,416,512z
	 M96,512c0,35.3,28.6,64,64,64c35.3,0,64-28.7,64-64c0-35.4-28.7-64-64-64C124.6,448,96,476.6,96,512z M209.5,357.5l354.2-101.2
	c6.8-2,12.3-9.2,12.3-16.3V64H128V12.8c0-7-5.8-12.8-12.8-12.8H12.8C5.8,0,0,5.8,0,12.8V64h64l61.1,286.6l2.9,30.2v52.8
	c0,7,5.8,12.8,12.8,12.8h422.4c7,0,12.8-5.8,12.8-12.8V384H216.1C179.3,384,178.5,366.4,209.5,357.5z"/>
</svg>
